# xmcd CD database file
#
# Track frame offsets:
#	150
#	17027
#	32535
#	54160
#	67427
#	90265
#	109552
#	125487
#	140940
#	191755
#	217365
#	233502
#
# Disc length: 3365 seconds
#
# Revision: 0
# Processed by: cddbd v1.5.2PL0 Copyright (c) Steve Scherf et al.
# Submitted via: CDex 1.51
#
DISCID=ac0d230c
DTITLE=Various Artist - All For Fall
DYEAR=2001
DGENRE=Jazz
TTITLE0=Streets Ahead
TTITLE1=From Gagarin's Point Of View
TTITLE2=Bisso Baba
TTITLE3=God Bless The Child
TTITLE4=Ill Wind
TTITLE5=In A Silent Way
TTITLE6=Turn It Out (Radio Edit)
TTITLE7=It Had To Be You
TTITLE8=Straight, No Chaser
TTITLE9=That's The Way Of The World
TTITLE10=Summertime
TTITLE11=Naima
EXTD=YEAR: 2001
EXTT0=
EXTT1=
EXTT2=
EXTT3=
EXTT4=
EXTT5=
EXTT6=
EXTT7=
EXTT8=
EXTT9=
EXTT10=
EXTT11=
PLAYORDER=
